<?xml version="1.0" encoding="UTF-8" standalone="no"?>
<svg width="24px" height="24px" viewBox="0 0 24 24" version="1.1" xmlns="http://www.w3.org/2000/svg" xmlns:xlink="http://www.w3.org/1999/xlink" xmlns:sketch="http://www.bohemiancoding.com/sketch/ns">
    <!-- Generator: Sketch 3.3.2 (12043) - http://www.bohemiancoding.com/sketch -->
    <title>volume_max</title>
    <desc>Created with Sketch.</desc>
    <defs></defs>
    <g id="Welcome" stroke="none" stroke-width="1" fill="none" fill-rule="evenodd" sketch:type="MSPage">
        <g id="volume_max" sketch:type="MSArtboardGroup" fill="#FFFFFF">
            <g id="Triangle-1-Copy-2-+-Line-+-Line-Copy" sketch:type="MSLayerGroup" transform="translate(0.000000, 4.000000)">
                <path d="M7.07141333,3.98490977 L11.5100706,0.360875068 C12.3518625,-0.326423521 13.0516444,-0.00510504193 13.0516444,1.09605925 L13.0516444,14.9420263 C13.0516444,16.0392662 12.3614583,16.3723438 11.5100706,15.6772105 L6.98780226,11.9849098 L1.99961498,11.9849098 C0.895258123,11.9849098 0,11.0982034 0,9.98680842 L0,5.98301113 C0,4.87949022 0.88743329,3.98490977 1.99961498,3.98490977 L7.07141333,3.98490977 Z" id="Triangle-1-Copy-2" sketch:type="MSShapeGroup"></path>
                <path d="M15.7312503,4.76976385 C15.8609476,4.88284626 16.0990053,5.1545359 16.3467567,5.57076765 C16.7698104,6.28151397 17.023681,7.11835371 17.023681,8.08483319 C17.023681,9.04560022 16.7734139,9.8508089 16.357891,10.5161076 C16.1170673,10.9016933 15.8875902,11.1454782 15.7670985,11.2410244 C15.3343563,11.5841754 15.2617283,12.2131612 15.6048793,12.6459034 C15.9480304,13.0786456 16.5770161,13.1512735 17.0097583,12.8081225 C17.2980797,12.5794927 17.6818223,12.1718237 18.0542184,11.575576 C18.6607283,10.6044858 19.023681,9.43672267 19.023681,8.08483319 C19.023681,6.73865614 18.6643319,5.55412487 18.0653527,4.54781704 C17.6998843,3.9338163 17.3247223,3.50565294 17.0456065,3.26229319 C16.6293299,2.89934375 15.9976425,2.9425739 15.634693,3.35885043 C15.2717436,3.77512696 15.3149737,4.40681441 15.7312503,4.76976385 L15.7312503,4.76976385 Z" id="Shape" sketch:type="MSShapeGroup"></path>
                <path d="M19.2932735,2.76174959 C19.3374565,2.80027246 19.4400345,2.90155228 19.5819643,3.06353342 C19.8309551,3.34770064 20.0826762,3.68923098 20.3187934,4.08591675 C20.9981054,5.22718688 21.405731,6.57085299 21.405731,8.11719402 C21.405731,9.65782261 21.001709,10.9577223 20.3299276,12.0333193 C20.0975572,12.4053703 19.8501853,12.7214757 19.6059374,12.9809524 C19.4678556,13.1276435 19.369254,13.217215 19.3291217,13.2490386 C18.8963795,13.5921897 18.8237515,14.2211754 19.1669026,14.6539176 C19.5100536,15.0866598 20.1390394,15.1592878 20.5717815,14.8161368 C20.9626063,14.506225 21.500104,13.9352144 22.026255,13.0927878 C22.8890233,11.7113993 23.405731,10.048945 23.405731,8.11719402 C23.405731,6.19115542 22.8926269,4.49979778 22.0373893,3.06296614 C21.5181659,2.19065111 20.989249,1.58701083 20.6076297,1.25427893 C20.1913532,0.891329487 19.5596657,0.934559636 19.1967163,1.35083617 C18.8337669,1.7671127 18.876997,2.39880015 19.2932735,2.76174959 L19.2932735,2.76174959 Z" id="Shape" sketch:type="MSShapeGroup"></path>
            </g>
        </g>
    </g>
</svg>